<?xml version="1.0" encoding="UTF-8"?>
<svg id="Capa_2" xmlns="http://www.w3.org/2000/svg" viewBox="0 0 357.28 167.42">
  <defs>
    <style>
      .cls-1 {
        fill: #1d1d1b;
      }
    </style>
  </defs>
  <g id="Capa_1-2" data-name="Capa_1">
    <g>
      <g>
        <path class="cls-1" d="M32.34,102.14c-3.22,2.95-7.34,4.42-12.36,4.42-6.21,0-11.09-1.99-14.65-5.98-3.56-4-5.33-9.49-5.33-16.46,0-7.54,2.02-13.35,6.06-17.43,3.52-3.55,7.99-5.33,13.42-5.33,7.27,0,12.58,2.38,15.94,7.15,1.86,2.68,2.85,5.36,2.99,8.06h-9.02c-.59-2.07-1.34-3.63-2.26-4.69-1.64-1.88-4.07-2.81-7.29-2.81s-5.87,1.32-7.76,3.97c-1.89,2.65-2.84,6.39-2.84,11.24s1,8.47,3,10.88c2,2.41,4.55,3.62,7.63,3.62s5.58-1.04,7.24-3.11c.92-1.11,1.68-2.78,2.29-5.01h8.94c-.78,4.71-2.77,8.54-5.98,11.48Z"/>
        <path class="cls-1" d="M70.96,105.36v-19.28h-16.88v19.28h-8.94v-43.18h8.94v16.46h16.88v-16.46h8.96v43.18h-8.96Z"/>
        <path class="cls-1" d="M106.88,88.43h-9.32v16.93h-8.82v-43.18h21.18c3.03.06,5.36.43,6.99,1.11,1.63.68,3.01,1.69,4.15,3.02.94,1.09,1.68,2.3,2.23,3.63.55,1.33.82,2.84.82,4.54,0,2.05-.52,4.07-1.55,6.05-1.04,1.98-2.74,3.38-5.13,4.2,1.99.8,3.4,1.94,4.23,3.41.83,1.48,1.25,3.73,1.25,6.75v2.9c0,1.97.08,3.31.23,4.01.23,1.11.78,1.93,1.64,2.46v1.08h-9.93c-.27-.96-.47-1.73-.59-2.31-.23-1.21-.36-2.45-.38-3.72l-.06-4.01c-.04-2.75-.54-4.59-1.51-5.51-.97-.92-2.78-1.38-5.43-1.38ZM112.35,80.58c1.8-.82,2.7-2.44,2.7-4.86,0-2.62-.87-4.38-2.61-5.27-.98-.51-2.44-.76-4.39-.76h-10.49v11.6h10.22c2.03,0,3.55-.23,4.57-.7Z"/>
        <path class="cls-1" d="M150.97,106.56c-6.17,0-10.89-1.68-14.15-5.04-4.38-4.12-6.56-10.06-6.56-17.81s2.19-13.85,6.56-17.81c3.26-3.36,7.98-5.04,14.15-5.04s10.89,1.68,14.15,5.04c4.35,3.97,6.53,9.9,6.53,17.81s-2.18,13.69-6.53,17.81c-3.26,3.36-7.98,5.04-14.15,5.04ZM159.49,94.96c2.09-2.64,3.13-6.39,3.13-11.25s-1.05-8.59-3.15-11.24c-2.1-2.65-4.94-3.97-8.51-3.97s-6.43,1.32-8.55,3.96c-2.13,2.64-3.19,6.39-3.19,11.25s1.06,8.61,3.19,11.25c2.13,2.64,4.98,3.96,8.55,3.96s6.42-1.32,8.53-3.96Z"/>
        <path class="cls-1" d="M186.8,105.36h-8.41v-43.18h13.12l7.85,33.96,7.79-33.96h12.98v43.18h-8.41v-29.21c0-.84,0-2.02.03-3.53.02-1.51.03-2.68.03-3.5l-8.17,36.24h-8.76l-8.12-36.24c0,.82,0,1.99.03,3.5.02,1.51.03,2.69.03,3.53v29.21Z"/>
        <path class="cls-1" d="M253.8,96.49h-15.91l-2.99,8.88h-9.43l15.41-43.18h10.2l15.29,43.18h-9.79l-2.78-8.88ZM251.28,89.04l-5.39-16.99-5.57,16.99h10.96Z"/>
        <path class="cls-1" d="M298.8,62.18v7.65h-12.92v35.54h-9.08v-35.54h-12.98v-7.65h34.98Z"/>
        <path class="cls-1" d="M303.37,62.18h8.96v43.18h-8.96v-43.18Z"/>
        <path class="cls-1" d="M351.21,102.14c-3.22,2.95-7.34,4.42-12.36,4.42-6.21,0-11.09-1.99-14.65-5.98-3.55-4-5.33-9.49-5.33-16.46,0-7.54,2.02-13.35,6.06-17.43,3.52-3.55,7.99-5.33,13.42-5.33,7.27,0,12.58,2.38,15.94,7.15,1.86,2.68,2.85,5.36,2.99,8.06h-9.02c-.59-2.07-1.34-3.63-2.26-4.69-1.64-1.88-4.07-2.81-7.29-2.81s-5.87,1.32-7.76,3.97c-1.89,2.65-2.84,6.39-2.84,11.24s1,8.47,3,10.88c2,2.41,4.55,3.62,7.63,3.62s5.58-1.04,7.24-3.11c.92-1.11,1.68-2.78,2.29-5.01h8.94c-.78,4.71-2.77,8.54-5.98,11.48Z"/>
      </g>
      <path class="cls-1" d="M144.57,122.23h-10.88c-8.12,0-13.1,8.86-8.92,15.82,2.3,3.82,5,7.36,8.05,10.56,4.77,5.01,13.05,3.96,16.51-2.04l4.7-8.14c2.21-3.82,1.71-8.58-1.1-11.98-.08-.09-.15-.19-.23-.28-1.99-2.47-4.97-3.93-8.15-3.93Z"/>
      <path class="cls-1" d="M219.67,122.23h-10.85c-3.18,0-6.16,1.46-8.16,3.93-.08.09-.15.19-.23.28-2.81,3.41-3.3,8.16-1.1,11.98l4.69,8.13c3.46,6,11.75,7.06,16.53,2.04,3.04-3.2,5.74-6.73,8.03-10.54,4.19-6.96-.8-15.83-8.93-15.83Z"/>
      <path class="cls-1" d="M176.7,137.65c-1.06,0-2.11-.05-3.14-.16-5.75-.58-11.33,2.13-14.22,7.13l-.47.81c-5.16,8.94.42,20.37,10.67,21.57,2.35.28,4.74.42,7.16.42s4.81-.14,7.16-.42c10.25-1.21,15.83-12.64,10.67-21.57l-.47-.81c-2.89-5.01-8.47-7.71-14.22-7.13-1.03.1-2.08.16-3.14.16Z"/>
      <path class="cls-1" d="M146.52,45.19h-10.88c-8.12,0-13.1-8.86-8.92-15.82,2.3-3.82,5-7.36,8.05-10.56,4.77-5.01,13.05-3.96,16.51,2.04l4.7,8.14c2.21,3.82,1.71,8.58-1.1,11.98-.08.09-.15.19-.23.28-1.99,2.47-4.97,3.93-8.15,3.93Z"/>
      <path class="cls-1" d="M221.62,45.19h-10.85c-3.18,0-6.16-1.46-8.16-3.93-.08-.09-.15-.19-.23-.28-2.81-3.41-3.3-8.16-1.1-11.98l4.69-8.13c3.46-6,11.75-7.06,16.53-2.04,3.04,3.2,5.74,6.73,8.03,10.54,4.19,6.96-.8,15.83-8.93,15.83Z"/>
      <path class="cls-1" d="M178.64,29.77c-1.06,0-2.11.05-3.14.16-5.75.58-11.33-2.13-14.22-7.13l-.47-.81c-5.16-8.94.42-20.37,10.67-21.57,2.35-.28,4.74-.42,7.16-.42s4.81.14,7.16.42c10.25,1.21,15.83,12.64,10.67,21.57l-.47.81c-2.89,5.01-8.47,7.71-14.22,7.13-1.03-.1-2.08-.16-3.14-.16Z"/>
    </g>
  </g>
</svg>